<svg xmlns="http://www.w3.org/2000/svg" viewBox="0 0 100 100" xmlns:v="https://vecta.io/nano"><path d="M30.95 78C31.78 96.83 8.36 98.02 2 87.96.12 84.97-.14 81.45.04 78c.7-13.57 14.12-13.24 23.1-19.25 2.7-1.82 10.3-6.3 10.37-9.87.1-3.8-7.8-8.68-10.62-10.5C13.85 32.56.74 33.42.04 20-.14 16.55.12 13.03 2 10.04 8.32.05 31.8.93 30.95 20c-.17 4-1.08 5.57-2.95 9 7.45 2.35 12.25 6.25 17.3 9.3 2.17-.6 17.4-12.1 19.44-13.56C67.25 23 85.13 8.38 95.94 13 106.9 17.85 89.06 26.94 85 30.63L53 54.15C46.85 58.63 35 66.8 28 69c1.87 3.43 2.78 5 2.95 9zM18.2 25.94c7.8-3.2 4.06-17.56-5.5-13.88-10.3 3.82-2.25 16.57 5.5 13.88zM61 51.57c3.16-.06 38.25 25.75 38.56 28.57.48 4.38-5.34 5.64-8.56 5.82-11.26.63-15.05-4.02-23.7-10.2L47.63 61.2S57.88 51.64 61 51.57zM16.06 86.3c9.32-1.37 9.12-15.7-1.8-14.87-10.25.8-6.12 15.62 1.8 14.87z"/></svg>