<svg xmlns="http://www.w3.org/2000/svg" viewBox="0 0 100 100" xmlns:v="https://vecta.io/nano"><path d="M60 0v18H28V0h32zM14 92c-2.14-.04-4.77.04-6.4-1.6C5.68 88.48 6 84.54 6 82V23C6 6.3 4.53 4.07 15 4h9v10h-8v68h14v10H14zM79.7 5.02C83.25 7.4 82 21.63 82 26H72V14h-8V4c3.27 0 13.33-.55 15.7 1.02zM94 30v70H34V30h60zM47.06 46c-1.97.62-.6 4.12-.03 3.94l36-.1c.83.24 1.88-3.28-.1-3.84H47.06zm-.03 12.06C46 58 45.63 62 47.1 62.1l25.94-.15c1.62.05 1-3.85 0-3.88-5.62-.18-20.37-.06-26 0zM47 70.02c-1.03.02-1.6 3.98 0 3.95l36 .01c.87.1 1.67-3.8.01-3.97l-36 .01zM46.97 82c-.7.03-1.4 4-.06 3.94l26.12.06c1.03-.01 1.63-4.02-.06-4-5.47-.06-20.44-.03-26 0z"/></svg>