<?xml version="1.0" encoding="UTF-8"?>
<!DOCTYPE svg  PUBLIC '-//W3C//DTD SVG 20010904//EN'  'http://www.w3.org/TR/2001/REC-SVG-20010904/DTD/svg10.dtd'>
<svg viewBox="0 0 512 512" xmlns="http://www.w3.org/2000/svg">
    <path d="m15.92 281c14.09-16.89 29.01-32.05 45.08-47.02 56.31-52.5 129.45-86.1 207-85.98l12 0.91c25.52 1.75 49.57 6.35 74 14.12l25 9.4c2.54 1.08 9.54 4.63 11.9 4.65 4.07 0.03 7.81-8.88 9.7-12.08 4.47-7.54 12.64-23.53 18.44-28.81 5.29-4.82 11.44-6.85 17.95-2.96 5.33 3.18 8.34 9.26 10.72 14.77l11.97 31s37 96 37 96c4.03 10.88 14.19 32.49 14.32 43 0.22 18.54-8.54 29.96-27 33.99l-32 5.42-73 12s-46 7.67-46 7.67l-25 3.88c-3.04 0.12-6.06-0.08-9-0.89-20.84-5.74-6.38-27.97 0-39.07 0 0 4.58-8 4.58-8 1.98-3.45 8.35-11.84 5.77-15.48-2.12-2.99-19.16-12.47-23.35-14.75-22.45-12.2-43.37-21.33-68-28.35-50.12-14.29-99.38-14.09-149 2.25-14.58 4.8-28.39 11.57-42 18.59-9.05 4.67-15.41 10.48-26 10.74 0.55-9.54 9.03-17.94 14.92-25z"/>
</svg>
