<?xml version="1.0" encoding="UTF-8"?>
<!DOCTYPE svg  PUBLIC '-//W3C//DTD SVG 20010904//EN'  'http://www.w3.org/TR/2001/REC-SVG-20010904/DTD/svg10.dtd'>
<svg viewBox="0 0 512 512" xmlns="http://www.w3.org/2000/svg">
    <path d="m485 295.26c-13.61-7.02-27.42-13.79-42-18.59-49.62-16.34-98.88-16.54-149-2.25-24.63 7.02-45.55 16.15-68 28.35-4.19 2.28-21.23 11.76-23.35 14.75-2.58 3.64 3.79 12.03 5.77 15.48 0 0 4.58 8 4.58 8 6.38 11.1 20.74 33.36 0 39.07-2.94 0.81-5.96 1.01-9 0.89l-25-3.88s-46-7.67-46-7.67l-73-12-32-5.42c-18.46-4.03-27.22-15.45-27-33.99 0.13-10.51 10.29-32.12 14.32-43 0 0 37-96 37-96l11.97-31c2.38-5.51 5.39-11.59 10.72-14.77 6.51-3.89 12.66-1.86 17.95 2.96 5.48 4.98 14.33 21.6 18.46 28.81 1.84 3.2 5.63 12.11 9.68 12.08 2.36-0.02 9.36-3.57 11.9-4.65l25-9.4c24.43-7.77 48.48-12.37 74-14.12l12-0.91c77.41-0.12 150.79 33.57 207 85.98 16.07 14.97 30.99 30.13 45.08 47.02 5.89 7.06 14.37 15.46 14.92 25-10.59-0.26-16.95-6.07-26-10.74z"/>
</svg>
